HIERARCHY
ROOT Hips
{
	OFFSET 0.00000 0.00000 0.00000
	CHANNELS 6 Xposition Yposition Zposition Zrotation Yrotation Xrotation 
	JOINT LHipJoint
	{
		OFFSET 0 0 0
		CHANNELS 3 Zrotation Yrotation Xrotation
		JOINT LeftUpLeg
		{
			OFFSET 1.53139 -1.83434 0.76626
			CHANNELS 3 Zrotation Yrotation Xrotation
			JOINT LeftLeg
			{
				OFFSET 2.56112 -7.03663 0.00000
				CHANNELS 3 Zrotation Yrotation Xrotation
				JOINT LeftFoot
				{
					OFFSET 2.59983 -7.14299 0.00000
					CHANNELS 3 Zrotation Yrotation Xrotation
					JOINT LeftToeBase
					{
						OFFSET 0.13742 -0.37757 2.00054
						CHANNELS 3 Zrotation Yrotation Xrotation
						End Site
						{
							OFFSET 0.00000 -0.00000 1.02897
						}
					}
				}
			}
		}
	}
	JOINT RHipJoint
	{
		OFFSET 0 0 0
		CHANNELS 3 Zrotation Yrotation Xrotation
		JOINT RightUpLeg
		{
			OFFSET -1.40122 -1.83435 0.76627
			CHANNELS 3 Zrotation Yrotation Xrotation
			JOINT RightLeg
			{
				OFFSET -2.54052 -6.98003 0.00000
				CHANNELS 3 Zrotation Yrotation Xrotation
				JOINT RightFoot
				{
					OFFSET -2.63179 -7.23079 0.00000
					CHANNELS 3 Zrotation Yrotation Xrotation
					JOINT RightToeBase
					{
						OFFSET -0.24131 -0.66299 2.03908
						CHANNELS 3 Zrotation Yrotation Xrotation
						End Site
						{
							OFFSET -0.00000 -0.00000 1.07391
						}
					}
				}
			}
		}
	}
	JOINT LowerBack
	{
		OFFSET 0 0 0
		CHANNELS 3 Zrotation Yrotation Xrotation
		JOINT Spine
		{
			OFFSET 0.01174 2.10302 -0.29778
			CHANNELS 3 Zrotation Yrotation Xrotation
			JOINT Spine1
			{
				OFFSET 0.00772 2.13227 -0.01247
				CHANNELS 3 Zrotation Yrotation Xrotation
				JOINT Neck
				{
					OFFSET 0 0 0
					CHANNELS 3 Zrotation Yrotation Xrotation
					JOINT Neck1
					{
						OFFSET -0.09219 1.60848 0.31481
						CHANNELS 3 Zrotation Yrotation Xrotation
						JOINT Head
						{
							OFFSET 0.13974 1.65456 -0.31134
							CHANNELS 3 Zrotation Yrotation Xrotation
							End Site
							{
								OFFSET 0.04742 1.69515 -0.14578
							}
						}
					}
				}
				JOINT LeftShoulder
				{
					OFFSET 0 0 0
					CHANNELS 3 Zrotation Yrotation Xrotation
					JOINT LeftArm
					{
						OFFSET 3.24909 1.02882 -0.23993
						CHANNELS 3 Zrotation Yrotation Xrotation
						JOINT LeftForeArm
						{
							OFFSET 5.32955 -0.00000 -0.00000
							CHANNELS 3 Zrotation Yrotation Xrotation
							JOINT LeftHand
							{
								OFFSET 3.69232 -0.00000 -0.00000
								CHANNELS 3 Zrotation Yrotation Xrotation
								JOINT LeftFingerBase
								{
									OFFSET 0 0 0
									CHANNELS 3 Zrotation Yrotation Xrotation
									JOINT LeftHandIndex1
									{
										OFFSET 0.53660 -0.00000 -0.00000
										CHANNELS 3 Zrotation Yrotation Xrotation
										End Site
										{
											OFFSET 0.43262 -0.00000 -0.00000
										}
									}
								}
								JOINT LThumb
								{
									OFFSET 0 0 0
									CHANNELS 3 Zrotation Yrotation Xrotation
									End Site
									{
										OFFSET 0.43922 -0.00000 0.43922
									}
								}
							}
						}
					}
				}
				JOINT RightShoulder
				{
					OFFSET 0 0 0
					CHANNELS 3 Zrotation Yrotation Xrotation
					JOINT RightArm
					{
						OFFSET -3.21387 0.93002 -0.34594
						CHANNELS 3 Zrotation Yrotation Xrotation
						JOINT RightForeArm
						{
							OFFSET -5.23431 -0.00000 0.00000
							CHANNELS 3 Zrotation Yrotation Xrotation
							JOINT RightHand
							{
								OFFSET -3.55301 -0.00000 -0.00000
								CHANNELS 3 Zrotation Yrotation Xrotation
								JOINT RightFingerBase
								{
									OFFSET 0 0 0
									CHANNELS 3 Zrotation Yrotation Xrotation
									JOINT RightHandIndex1
									{
										OFFSET -0.77252 -0.00000 -0.00000
										CHANNELS 3 Zrotation Yrotation Xrotation
										End Site
										{
											OFFSET -0.62283 -0.00000 -0.00000
										}
									}
								}
								JOINT RThumb
								{
									OFFSET 0 0 0
									CHANNELS 3 Zrotation Yrotation Xrotation
									End Site
									{
										OFFSET -0.63234 -0.00000 0.63234
									}
								}
							}
						}
					}
				}
			}
		}
	}
}
MOTION
Frames: 15
Frame Time: .0083333
3.2693 17.7139 8.3845 0.2369 34.4203 6.6479 0.0000 0.0000 0.0000 -16.4746 -11.6727 -26.0022 2.8578 10.4613 30.4838 -0.1623 -9.9513 -3.7789 0.0439 -1.3517 -3.7170 0.0000 0.0000 0.0000 16.1238 -1.9304 -29.0347 -4.2178 -12.4448 37.3241 -0.5553 -1.8478 -14.8666 -0.0092 -0.6199 1.7034 2.3386 3.1499 24.9584 1.0429 4.8875 6.7531 -1.6421 2.4137 -6.2653 -14.1019 -11.4774 -19.2922 12.4230 -14.4901 16.8854 4.3633 -6.3250 10.5790 -0.0000 0.0000 0.0000 -83.0104 -3.9746 64.9296 50.9288 -53.3633 -26.9177 -0.0000 -0.0000 5.0894 29.6135 22.9420 12.4926 -7.1250 0.0000 -0.0000 0.6143 55.9391 0.1649 -0.0000 0.0000 0.0000 75.8849 21.8229 50.2030 -30.7954 41.5654 -11.9338 0.0000 0.0000 17.3018 -41.6479 3.4475 -3.0613 7.1250 -0.0000 -0.0000 -11.2730 -25.3548 -5.4605
3.2986 17.7242 8.4277 0.1901 34.3105 6.0047 0.0000 0.0000 0.0000 -16.6236 -11.4256 -24.9616 2.8170 10.3927 30.2579 -0.1437 -9.8185 -4.0660 0.0599 -1.5789 -4.3434 0.0000 0.0000 0.0000 16.1769 -2.1394 -27.9315 -4.1305 -12.3320 36.9168 -0.5590 -1.8752 -14.9270 -0.0051 -0.4619 1.2691 2.1622 3.1458 24.5255 0.9755 4.8233 6.5007 -1.5807 2.3785 -6.3370 -14.1995 -11.4574 -19.2603 12.5973 -14.4973 17.0091 4.4424 -6.3151 10.6435 0.0000 0.0000 0.0000 -83.0544 -3.6111 64.5672 51.0142 -53.3965 -26.9863 -0.0000 -0.0000 4.2455 29.6815 23.3683 12.7387 -7.1250 0.0000 -0.0000 0.5823 56.4216 0.1631 0.0000 0.0000 0.0000 75.9099 20.8609 50.6235 -31.6641 42.2777 -12.5142 0.0000 0.0000 16.6098 -41.3409 3.8102 -3.3459 7.1250 -0.0000 -0.0000 -10.9889 -24.9044 -5.4352
3.3224 17.7324 8.4752 0.0457 34.1013 5.2748 0.0000 0.0000 0.0000 -16.6508 -11.0969 -23.9195 2.7777 10.3262 30.0395 -0.1230 -9.6221 -4.3302 0.0731 -1.7445 -4.8000 0.0000 0.0000 0.0000 16.3373 -2.2094 -26.7468 -4.0418 -12.2158 36.4996 -0.5635 -1.9624 -15.0261 -0.0027 -0.3352 0.9210 1.9502 3.1812 24.1730 0.9457 4.8072 6.2536 -1.4772 2.3662 -6.4464 -14.2900 -11.4366 -19.1816 12.8316 -14.5229 17.0953 4.5404 -6.3094 10.6941 -0.0000 -0.0000 0.0000 -83.0610 -3.2800 64.2060 51.2569 -53.4900 -27.1812 -0.0000 -0.0000 3.3002 29.8108 23.8142 13.0259 -7.1250 0.0000 -0.0000 0.6107 56.9393 0.1787 -0.0000 -0.0000 0.0000 75.9470 19.8785 51.0251 -32.6389 43.0507 -13.1749 0.0000 0.0000 15.9080 -40.6397 4.4133 -3.7787 7.1250 -0.0000 -0.0000 -10.3819 -24.1791 -5.3026
3.3484 17.7433 8.5217 -0.1898 33.9395 4.4877 0.0000 0.0000 0.0000 -16.6085 -10.7834 -22.8603 2.7387 10.2595 29.8211 -0.1022 -9.5060 -4.6747 0.1072 -2.1115 -5.8138 0.0000 0.0000 0.0000 16.5729 -2.2791 -25.5535 -3.9518 -12.0960 36.0723 -0.5684 -2.0641 -15.1394 -0.0018 -0.2731 0.7504 1.8587 3.1631 23.7865 0.9264 4.7523 6.0718 -1.4145 2.3379 -6.4577 -14.2804 -11.4084 -19.3001 12.9415 -14.5268 17.3264 4.5768 -6.2894 10.8102 0.0000 -0.0000 0.0000 -83.1282 -3.0965 63.7616 51.3803 -53.5372 -27.2804 -0.0000 -0.0000 2.4294 29.5696 24.2290 13.1074 -7.1250 0.0000 -0.0000 0.2270 57.3374 0.0686 0.0000 -0.0000 0.0000 76.0258 18.9409 51.2701 -33.7321 43.8853 -13.9270 0.0000 0.0000 15.5238 -40.0632 4.4384 -3.7236 7.1250 -0.0000 -0.0000 -9.9581 -24.1952 -5.0758
3.3759 17.7562 8.5658 -0.2883 33.7462 3.8276 0.0000 0.0000 0.0000 -16.6800 -10.5473 -21.8088 2.6974 10.1883 29.5887 -0.0760 -9.2653 -5.0152 0.1086 -2.1245 -5.8498 0.0000 0.0000 0.0000 16.6674 -2.3509 -24.4242 -3.8599 -11.9717 35.6318 -0.5735 -2.1531 -15.2478 -0.0009 -0.1958 0.5379 1.6801 3.1569 23.3507 0.8635 4.6882 5.9111 -1.3435 2.3074 -6.4226 -14.1959 -11.3449 -19.4800 13.0035 -14.4810 17.5310 4.5919 -6.2449 10.9101 -0.0000 0.0000 0.0000 -83.1187 -2.9919 63.3574 51.4694 -53.5712 -27.3520 -0.0000 -0.0000 1.4326 29.2556 24.6664 13.1579 -7.1250 0.0000 -0.0000 -0.2540 57.7410 -0.0792 -0.0000 0.0000 0.0000 76.2165 18.0895 51.3060 -34.7317 44.6196 -14.6246 0.0000 0.0000 15.4522 -39.9450 4.3856 -3.6642 7.1250 -0.0000 -0.0000 -9.8796 -24.2724 -5.0167
3.4037 17.7674 8.6103 -0.4053 33.5668 3.2405 0.0000 0.0000 0.0000 -16.7049 -10.3435 -20.8457 2.6536 10.1120 29.3402 -0.0530 -9.0184 -5.2830 0.0871 -1.9038 -5.2398 0.0000 0.0000 0.0000 16.7737 -2.4331 -23.4210 -3.7718 -11.8504 35.2048 -0.5773 -2.1703 -15.3027 -0.0012 -0.2282 0.6271 1.4909 3.1442 22.8583 0.8363 4.6164 5.7112 -1.2243 2.2725 -6.4040 -14.1510 -11.2585 -19.5538 13.0402 -14.3913 17.6703 4.6159 -6.1916 10.9610 0.0000 -0.0000 0.0000 -83.1646 -2.7671 62.8979 51.7531 -53.6785 -27.5805 -0.0000 -0.0000 0.4773 28.6567 25.1056 13.0547 -7.1250 0.0000 -0.0000 -1.0684 58.0770 -0.3419 0.0000 -0.0000 0.0000 76.3510 17.2544 51.4495 -35.6964 45.3030 -15.3063 0.0000 0.0000 15.1832 -39.7525 4.8160 -3.9946 7.1250 -0.0000 -0.0000 -9.6759 -23.7387 -5.0314
3.4316 17.7775 8.6561 -0.5357 33.3860 2.6522 0.0000 0.0000 0.0000 -16.7193 -10.1253 -19.9025 2.6132 10.0408 29.1090 -0.0320 -8.8079 -5.5447 0.0925 -1.9614 -5.3989 0.0000 0.0000 0.0000 16.8835 -2.4768 -22.4194 -3.6883 -11.7337 34.7963 -0.5779 -2.2057 -15.3285 -0.0030 -0.3512 0.9649 1.3343 3.1244 22.3491 0.8217 4.5452 5.5121 -1.1096 2.2381 -6.3722 -14.0994 -11.1672 -19.5973 13.0410 -14.2948 17.8390 4.6286 -6.1395 11.0122 0.0000 0.0000 0.0000 -83.1960 -2.4792 62.4707 52.1790 -53.8374 -27.9240 -0.0000 0.0000 -0.6566 28.7203 25.4543 13.2518 -7.1250 0.0000 -0.0000 -1.1106 58.4681 -0.3658 0.0000 0.0000 0.0000 76.4135 16.4399 51.6390 -36.6173 45.9330 -15.9645 0.0000 0.0000 14.9940 -39.5383 5.4033 -4.4447 7.1250 -0.0000 -0.0000 -9.4347 -23.0100 -5.0628
3.4603 17.7860 8.7011 -0.7080 33.1412 2.0871 0.0000 0.0000 0.0000 -16.6838 -9.8859 -19.0234 2.5790 9.9802 28.9126 -0.0126 -8.6112 -5.7868 0.1184 -2.2180 -6.1085 0.0000 0.0000 0.0000 17.0435 -2.4854 -21.4782 -3.6098 -11.6222 34.4084 -0.5787 -2.2436 -15.3584 -0.0041 -0.4133 1.1357 1.2608 3.1293 21.8510 0.7998 4.5249 5.2739 -1.0658 2.2261 -6.3785 -14.1781 -11.1409 -19.6351 13.1438 -14.2879 18.0927 4.6830 -6.1242 11.1279 -0.0000 -0.0000 0.0000 -83.2597 -2.1707 62.0498 52.3987 -53.9183 -28.1014 -0.0000 0.0000 -1.8252 29.8058 25.9510 14.0727 -7.1250 0.0000 -0.0000 -0.0232 59.2664 -0.0081 -0.0000 -0.0000 0.0000 76.4111 15.5779 51.7498 -37.6714 46.6281 -16.7263 0.0000 0.0000 14.8092 -39.1704 5.8179 -4.7211 7.1250 -0.0000 -0.0000 -9.1095 -22.5200 -4.9874
3.4850 17.7917 8.7410 -0.8160 32.9011 1.5718 0.0000 0.0000 0.0000 -16.6849 -9.6796 -18.1993 2.5488 9.9262 28.7380 0.0045 -8.3934 -5.9717 0.1418 -2.4272 -6.6880 0.0000 0.0000 0.0000 17.1454 -2.4650 -20.5751 -3.5367 -11.5170 34.0440 -0.5815 -2.2529 -15.3975 -0.0089 -0.6080 1.6708 1.2272 3.1125 21.5228 0.6810 4.4808 4.9714 -1.1548 2.1984 -6.5304 -14.1187 -11.0851 -19.6562 13.2034 -14.2722 18.3417 4.7026 -6.1010 11.2225 -0.0000 0.0000 0.0000 -83.2782 -1.9180 61.5549 52.4497 -53.9370 -28.1427 -0.0000 0.0000 -3.0698 29.9099 25.8327 14.0721 -7.1250 0.0000 -0.0000 0.1363 59.1635 0.0472 -0.0000 0.0000 0.0000 76.5297 14.6498 51.9760 -38.8522 47.3750 -17.5900 0.0000 0.0000 14.4227 -38.9938 6.2822 -5.0627 7.1250 -0.0000 -0.0000 -8.9160 -21.9517 -4.9959
3.5113 17.7966 8.7803 -0.9496 32.7480 1.0209 0.0000 0.0000 0.0000 -16.6836 -9.4494 -17.3754 2.5193 9.8730 28.5663 0.0195 -8.2876 -6.1944 0.1685 -2.6444 -7.2902 0.0000 0.0000 0.0000 17.2692 -2.5539 -19.6764 -3.4709 -11.4208 33.7127 -0.5862 -2.2589 -15.4569 -0.0127 -0.7270 1.9978 1.2538 2.9836 21.2652 0.5405 4.3036 4.6474 -1.2716 2.1043 -6.7388 -14.0401 -10.9107 -19.6129 13.3399 -14.1223 18.5896 4.7778 -6.0103 11.2901 -0.0000 0.0000 0.0000 -83.1577 -1.5367 60.9792 52.7475 -54.0452 -28.3835 -0.0000 0.0000 -4.4914 29.3890 25.8665 13.8052 -7.1250 0.0000 -0.0000 -0.4795 59.0735 -0.1649 -0.0000 0.0000 0.0000 76.7088 13.7656 52.7962 -40.0782 48.1161 -18.4974 0.0000 0.0000 12.7957 -39.2846 6.7042 -5.4553 7.1250 -0.0000 -0.0000 -9.0615 -21.3865 -5.1973
3.5413 17.8042 8.8167 -1.0754 32.5913 0.5881 0.0000 0.0000 0.0000 -16.7049 -9.2453 -16.6805 2.4897 9.8191 28.3930 0.0357 -8.1263 -6.4009 0.1908 -2.8133 -7.7593 0.0000 0.0000 0.0000 17.3811 -2.7102 -18.9387 -3.4065 -11.3257 33.3864 -0.5873 -2.2645 -15.4736 -0.0068 -0.5308 1.4585 1.2984 2.8913 20.8472 0.4579 4.1797 4.3692 -1.3394 2.0387 -6.8150 -13.9683 -10.8029 -19.6437 13.3502 -14.0181 18.8014 4.7945 -5.9520 11.3538 -0.0000 0.0000 0.0000 -83.1539 -1.2526 60.5228 53.1364 -54.1847 -28.6987 -0.0000 0.0000 -5.9411 28.7959 25.8744 13.4888 -7.1250 0.0000 -0.0000 -1.1666 58.9389 -0.3974 -0.0000 0.0000 0.0000 76.8004 12.9704 53.2390 -41.2512 48.7939 -19.3754 0.0000 0.0000 11.7443 -39.3330 6.9616 -5.6721 7.1250 -0.0000 -0.0000 -9.0576 -21.0554 -5.2637
3.5694 17.8096 8.8500 -1.0061 32.4241 0.2775 0.0000 0.0000 0.0000 -16.8798 -9.1052 -15.9962 2.4574 9.7600 28.2029 0.0483 -7.9584 -6.5393 0.1745 -2.6909 -7.4192 0.0000 0.0000 0.0000 17.2947 -2.8432 -18.2330 -3.3396 -11.2255 33.0444 -0.5853 -2.2187 -15.4256 -0.0088 -0.6056 1.6642 1.1244 2.8679 20.3914 0.3941 4.1002 4.1334 -1.2719 2.0000 -6.8398 -13.9584 -10.7398 -19.6033 13.3489 -13.9543 18.9273 4.8092 -5.9224 11.3822 -0.0000 0.0000 0.0000 -83.1973 -1.1071 60.1832 53.4968 -54.3120 -28.9911 -0.0000 0.0000 -7.4734 28.2227 25.7569 13.1283 -7.1250 0.0000 -0.0000 -1.7821 58.6757 -0.5960 -0.0000 0.0000 0.0000 76.8004 12.2661 52.4899 -42.5305 49.4997 -20.3431 0.0000 0.0000 14.1729 -37.3917 6.8917 -5.2402 7.1250 -0.0000 -0.0000 -7.6877 -21.3609 -4.3984
3.5930 17.8158 8.8892 -1.0857 32.3737 -0.1807 0.0000 0.0000 0.0000 -16.8935 -8.9826 -15.2011 2.4181 9.6875 27.9706 0.0560 -7.8625 -6.6285 0.1592 -2.5709 -7.0864 0.0000 0.0000 0.0000 17.3734 -2.9654 -17.3943 -3.2712 -11.1216 32.6911 -0.5915 -2.2654 -15.5256 -0.0135 -0.7515 2.0652 1.0517 2.7979 19.9433 0.3593 3.9851 3.9696 -1.2200 1.9450 -6.7849 -14.0325 -10.7436 -19.6290 13.4765 -13.9890 19.0772 4.8644 -5.9255 11.4666 -0.0000 -0.0000 0.0000 -83.2201 -1.0348 59.8946 53.9380 -54.4653 -29.3498 -0.0000 0.0000 -9.2043 27.8589 26.2491 13.1575 -7.1250 0.0000 -0.0000 -2.3776 59.1156 -0.8203 -0.0000 -0.0000 0.0000 76.8976 11.6275 52.4939 -43.7962 50.1649 -21.3103 0.0000 0.0000 13.6482 -36.9748 7.1829 -5.3777 7.1250 -0.0000 -0.0000 -7.3526 -21.0466 -4.2561
3.6147 17.8222 8.9322 -1.2906 32.2936 -0.7993 0.0000 0.0000 0.0000 -16.7948 -8.8114 -14.2751 2.3739 9.6050 27.7069 0.0690 -7.7183 -6.7905 0.1578 -2.5594 -7.0545 0.0000 0.0000 0.0000 17.5810 -2.9815 -16.4044 -3.2041 -11.0184 32.3419 -0.5961 -2.4260 -15.6645 -0.0193 -0.8972 2.4661 1.0270 2.7066 19.5631 0.3752 3.8574 3.8522 -1.1408 1.8840 -6.7154 -14.1165 -10.7420 -19.5398 13.6034 -14.0065 19.0486 4.9244 -5.9304 11.4606 0.0000 -0.0000 0.0000 -83.2902 -1.0268 59.5310 54.2235 -54.5631 -29.5823 -0.0000 0.0000 -11.0000 27.7219 27.0697 13.4492 -7.1250 0.0000 -0.0000 -2.8579 59.9561 -1.0436 0.0000 -0.0000 0.0000 76.9304 11.0811 52.5427 -45.0726 50.8040 -22.2950 0.0000 0.0000 13.0765 -36.3662 7.7227 -5.6510 7.1250 -0.0000 -0.0000 -6.8512 -20.4522 -4.0540
3.6377 17.8298 8.9731 -1.2707 32.3272 -1.2070 0.0000 0.0000 0.0000 -16.9157 -8.7390 -13.4502 2.3296 9.5213 27.4400 0.0741 -7.6813 -6.8642 0.1242 -2.2717 -6.2572 0.0000 0.0000 0.0000 17.5712 -3.0356 -15.5214 -3.1375 -10.9144 31.9917 -0.5969 -2.6123 -15.7753 -0.0172 -0.8478 2.3302 0.8394 2.5719 19.1809 0.3651 3.6380 3.6542 -0.9788 1.7793 -6.7410 -14.3106 -10.7041 -19.3635 13.7903 -13.9708 19.0598 5.0393 -5.9160 11.4591 -0.0000 0.0000 0.0000 -83.4542 -0.9218 59.0107 54.4037 -54.6242 -29.7292 -0.0000 0.0000 -12.5399 27.4895 27.3563 13.4473 -7.1250 0.0000 -0.0000 -3.2476 60.2027 -1.2051 -0.0000 0.0000 0.0000 76.8975 10.4510 52.6187 -46.3885 51.4308 -23.3194 0.0000 0.0000 12.8602 -36.0003 8.1559 -5.8849 7.1250 -0.0000 -0.0000 -6.5379 -19.9664 -3.9379
